<svg xmlns="http://www.w3.org/2000/svg" viewBox="0 -0.5 30 24" shape-rendering="crispEdges">
<metadata>Made with Pixels to Svg https://codepen.io/shshaw/pen/XbxvNj</metadata>
<path stroke="#7952b3" d="M4 0h22M4 1h22M3 2h24M3 3h24M3 4h24M3 5h8M17 5h10M3 6h7M19 6h8M3 7h7M13 7h4M20 7h7M2 8h8M13 8h5M20 8h7M2 9h8M13 9h5M20 9h8M2 10h8M13 10h4M19 10h9M0 11h10M18 11h12M0 12h10M20 12h10M2 13h8M13 13h5M20 13h8M2 14h8M13 14h5M21 14h7M3 15h7M13 15h5M21 15h6M3 16h7M13 16h4M20 16h7M3 17h7M19 17h8M3 18h8M17 18h10M3 19h24M3 20h24M3 21h24M4 22h22M5 23h20" />
<path stroke="#7951b3" d="M3 1h1M26 1h1M1 13h1M20 14h1" />
<path stroke="#7851b2" d="M16 5h1M25 23h1" />
<path stroke="#7950b2" d="M10 6h1M10 7h1M10 8h1M10 9h1M10 10h1M10 11h1M10 12h1M10 13h1M10 14h1M10 15h1M10 16h1M10 17h1" />
<path stroke="#7951b1" d="M27 8h1" />
<path stroke="#7952b2" d="M1 10h1M28 10h1M28 13h1" />
<path stroke="#7751b2" d="M20 15h1" />
<path stroke="#7752b2" d="M11 18h5" />
<path stroke="#7951b2" d="M16 18h1" />
<path stroke="#7852b3" d="M3 22h1" />
<path stroke="#7851b3" d="M26 22h1M4 23h1" />
</svg>