<svg xmlns="http://www.w3.org/2000/svg" viewBox="0 -0.5 21 24" shape-rendering="crispEdges">
<metadata>Made with Pixels to Svg https://codepen.io/shshaw/pen/XbxvNj</metadata>
<path stroke="#a278d8" d="M9 0h3M7 1h7M6 2h9M4 3h13M2 4h6M13 4h6M1 5h5M15 5h5M0 6h5M16 6h4M0 7h4M17 7h1M0 8h4M9 8h3M0 9h3M8 9h6M0 10h3M7 10h6M0 11h3M7 11h4M0 12h3M7 12h3M0 13h3M7 13h1M0 14h3M0 15h4M0 16h3M0 17h1" />
<path stroke="#ffffff" d="M8 4h5M6 5h9M5 6h11M4 7h13M4 8h5M12 8h4M3 9h5M14 9h1M16 9h1M18 9h1M3 10h4M15 10h5M3 11h4M16 11h1M18 11h1M3 12h4M15 12h5M3 13h4M16 13h1M18 13h1M3 14h5M14 14h1M4 15h5M12 15h5M4 16h13M5 17h11M6 18h9M8 19h5" />
<path stroke="#3a008e" d="M20 6h1M18 7h3M16 8h5M15 9h1M17 9h1M19 9h2M13 10h2M20 10h1M11 11h5M17 11h1M19 11h2M11 12h4M20 12h1M13 13h3M17 13h1M19 13h2M15 14h6M17 15h4M18 16h3M20 17h1" />
<path stroke="#290066" d="M10 12h1M8 13h5M8 14h6M9 15h3M3 16h1M17 16h1M1 17h4M16 17h4M1 18h5M15 18h5M2 19h6M13 19h6M4 20h13M6 21h9M7 22h6M9 23h3" />
</svg>