<svg xmlns="http://www.w3.org/2000/svg" viewBox="0 -0.5 20 24" shape-rendering="crispEdges">
<metadata>Made with Pixels to Svg https://codepen.io/shshaw/pen/XbxvNj</metadata>
<path stroke="#000020" d="M11 0h3M9 1h2M13 1h1M7 2h2M11 2h4M6 3h1M10 3h5M5 4h1M7 4h9M5 5h1M8 5h8M4 6h1M8 6h8M4 7h1M8 7h7M3 8h1M9 8h5M16 8h3M3 9h1M6 9h1M9 9h5M15 9h1M19 9h1M2 10h1M6 10h1M9 10h5M15 10h1M19 10h1M2 11h1M5 11h3M10 11h4M15 11h1M18 11h2M1 12h1M4 12h4M10 12h4M16 12h3M1 13h1M3 13h4M8 13h1M10 13h5M0 14h1M3 14h2M8 14h1M11 14h7M0 15h1M2 15h1M8 15h1M11 15h7M0 16h2M9 16h1M11 16h8M9 17h1M12 17h7M10 18h1M12 18h8M10 19h1M12 19h8M10 20h1M13 20h5M11 21h1M13 21h3M12 22h2" />
<path stroke="#ffffff" d="M11 1h2M9 2h2M7 3h3M6 4h1M6 5h2M5 6h3M5 7h3M4 8h5M4 9h2M7 9h2M16 9h3M3 10h3M7 10h2M16 10h3M3 11h2M8 11h2M16 11h2M2 12h2M8 12h2M2 13h1M9 13h1M1 14h2M9 14h2M1 15h1M9 15h2M10 16h1M10 17h2M11 18h1M11 19h1M11 20h2M12 21h1" />
</svg>