<svg xmlns="http://www.w3.org/2000/svg" viewBox="0 -0.5 26 26" shape-rendering="crispEdges">
<metadata>Made with Pixels to Svg https://codepen.io/shshaw/pen/XbxvNj</metadata>
<path stroke="#000000" d="M7 0h12M5 1h3M18 1h3M4 2h2M20 2h2M3 3h2M21 3h2M2 4h2M22 4h2M1 5h2M23 5h2M1 6h1M24 6h1M0 7h2M24 7h2M0 8h1M25 8h1M0 9h1M25 9h1M0 10h1M25 10h1M0 11h1M25 11h1M0 12h1M25 12h1M0 13h1M25 13h1M0 14h1M25 14h1M0 15h1M25 15h1M0 16h1M25 16h1M0 17h1M25 17h1M0 18h2M24 18h2M1 19h1M24 19h1M1 20h2M23 20h2M2 21h2M22 21h2M3 22h2M21 22h2M4 23h2M20 23h2M5 24h3M18 24h3M7 25h12" />
<path stroke="#ffffff" d="M8 1h10M7 2h12M7 3h12M7 4h12M7 5h12M7 6h12M7 7h12M7 8h12M7 9h12M7 10h5M14 10h5M7 11h4M15 11h4M7 12h3M16 12h3M7 13h3M16 13h3M7 14h4M15 14h4M7 15h5M14 15h5M7 16h12M7 17h12M7 18h12M7 19h12M7 20h12M7 21h12M7 22h12M7 23h12M8 24h10" />
<path stroke="#00684a" d="M6 2h1M5 3h2M4 4h3M3 5h4M2 6h5M2 7h5M1 8h6M1 9h6M1 10h6M1 11h6M1 12h6M1 13h6M1 14h6M1 15h6M1 16h6M1 17h6M2 18h5M2 19h5M3 20h4M4 21h3M5 22h2M6 23h1" />
<path stroke="#d0192d" d="M19 2h1M19 3h2M19 4h3M19 5h4M19 6h5M19 7h5M19 8h6M19 9h6M19 10h6M19 11h6M19 12h6M19 13h6M19 14h6M19 15h6M19 16h6M19 17h6M19 18h5M19 19h5M19 20h4M19 21h3M19 22h2M19 23h1" />
<path stroke="#e4c591" d="M12 10h2M11 11h4M10 12h6M10 13h6M11 14h4M12 15h2" />
</svg>