<svg xmlns="http://www.w3.org/2000/svg" viewBox="0 -0.5 23 24" shape-rendering="crispEdges">
<metadata>Made with Pixels to Svg https://codepen.io/shshaw/pen/XbxvNj</metadata>
<path stroke="#ff2f27" d="M4 0h2M2 1h2M6 1h1M0 2h2M7 2h2M0 3h2M8 3h2M16 3h4M0 4h1M2 4h2M6 4h1M9 4h1M14 4h2M20 4h2M0 5h1M4 5h2M9 5h1M13 5h1M22 5h1M0 6h1M4 6h1M9 6h1M13 6h3M20 6h3M0 7h1M4 7h1M9 7h1M13 7h1M17 7h3M22 7h1M0 8h1M4 8h1M9 8h1M13 8h1M22 8h1M0 9h1M4 9h1M9 9h1M13 9h1M22 9h1M0 10h1M4 10h1M9 10h1M13 10h1M22 10h1M0 11h1M4 11h1M9 11h1M11 11h2M14 11h2M20 11h2M0 12h1M4 12h1M9 12h2M16 12h4M0 13h1M4 13h1M8 13h1M17 13h1M0 14h1M4 14h1M6 14h2M15 14h3M0 15h1M4 15h2M13 15h1M17 15h1M0 16h1M6 16h1M11 16h2M17 16h1M0 17h1M7 17h2M10 17h1M17 17h1M0 18h2M9 18h1M16 18h2M2 19h1M9 19h1M15 19h1M4 20h1M9 20h1M13 20h2M6 21h1M9 21h1M12 21h1M7 22h4M9 23h1" />
<path stroke="#fe2e26" d="M7 3h1M16 7h1M14 15h1M11 21h1" />
<path stroke="#ff2e27" d="M3 19h1M5 21h1" />
</svg>