<svg xmlns="http://www.w3.org/2000/svg" viewBox="0 -0.5 24 18" shape-rendering="crispEdges">
<metadata>Made with Pixels to Svg https://codepen.io/shshaw/pen/XbxvNj</metadata>
<path stroke="#41b783" d="M9 0h1M8 1h3M8 2h1M10 2h2M7 3h2M11 3h2M7 4h1M12 4h1M6 5h2M12 5h1M6 6h1M5 7h2M4 8h2M4 9h1M3 10h2M3 11h1M2 12h2M2 13h1M1 14h2M0 15h2M0 16h2M0 17h7" />
<path stroke="#3d8070" d="M15 2h1M14 3h3M14 4h1M16 4h1M14 5h1M16 5h2M17 6h1M17 7h2M18 8h2M19 9h1M19 10h2M20 11h1M20 12h2M21 13h1M21 14h2M22 15h1M22 16h2M20 17h4" />
<path stroke="#36495e" d="M13 5h1M13 6h1M12 7h3M12 8h1M14 8h1M11 9h2M14 9h2M10 10h2M15 10h2M10 11h2M15 11h2M9 12h2M16 12h2M9 13h1M17 13h1M8 14h2M17 14h2M8 15h1M18 15h1M7 16h2M18 16h2M7 17h13" />
</svg>