<svg xmlns="http://www.w3.org/2000/svg" viewBox="0 -0.5 24 24" shape-rendering="crispEdges">
<metadata>Made with Pixels to Svg https://codepen.io/shshaw/pen/XbxvNj</metadata>
<path stroke="#3671a2" d="M9 0h6M7 1h10M6 2h2M10 2h8M6 3h2M10 3h8M6 4h12M12 5h6M2 6h16M1 7h17M1 8h17M0 9h18M0 10h17M0 11h9M0 12h7M0 13h6M0 14h6M1 15h4M1 16h4M3 17h2" />
<path stroke="#ffffff" d="M8 2h2M8 3h2M14 20h2M14 21h2" />
<path stroke="#ffd248" d="M18 6h4M18 7h5M18 8h5M18 9h6M18 10h6M17 11h7M8 12h16M7 13h17M6 14h18M6 15h17M6 16h17M6 17h15M6 18h6M6 19h12M6 20h8M16 20h2M7 21h7M16 21h1M7 22h10M10 23h4" />
</svg>