<svg xmlns="http://www.w3.org/2000/svg" viewBox="0 -0.5 46 42" shape-rendering="crispEdges">
<metadata>Made with Pixels to Svg https://codepen.io/shshaw/pen/XbxvNj</metadata>
<path stroke="#000000" d="M13 0h3M30 0h3M11 1h1M16 1h3M27 1h3M34 1h1M10 2h1M19 2h1M26 2h1M35 2h1M9 3h1M20 3h2M24 3h2M36 3h1M9 4h1M13 4h3M22 4h2M30 4h3M36 4h1M8 5h1M12 5h1M16 5h2M28 5h2M33 5h1M37 5h1M8 6h1M12 6h1M18 6h1M27 6h1M33 6h1M37 6h1M8 7h1M12 7h1M19 7h1M26 7h1M33 7h1M37 7h1M8 8h1M12 8h1M19 8h1M26 8h1M33 8h1M37 8h1M8 9h1M12 9h1M19 9h1M26 9h1M33 9h1M37 9h1M8 10h1M12 10h1M18 10h1M27 10h1M33 10h1M37 10h1M8 11h1M12 11h1M14 11h4M22 11h2M28 11h4M33 11h1M37 11h1M8 12h1M12 12h2M32 12h2M37 12h1M7 13h3M36 13h3M5 14h2M39 14h2M3 15h2M13 15h2M19 15h8M31 15h2M41 15h2M2 16h1M10 16h1M14 16h1M18 16h1M21 16h4M27 16h1M31 16h1M35 16h1M43 16h1M1 17h1M7 17h4M18 17h3M25 17h3M35 17h4M44 17h1M0 18h1M6 18h1M10 18h1M17 18h2M27 18h2M35 18h1M39 18h1M45 18h1M0 19h1M4 19h2M11 19h1M16 19h1M18 19h1M27 19h1M29 19h1M34 19h1M40 19h2M45 19h1M0 20h1M4 20h1M11 20h1M16 20h1M18 20h1M27 20h1M29 20h1M34 20h1M41 20h1M45 20h1M0 21h1M3 21h1M11 21h1M16 21h1M18 21h1M27 21h1M29 21h1M34 21h1M42 21h1M45 21h1M0 22h1M4 22h1M11 22h1M16 22h1M18 22h1M27 22h1M29 22h1M34 22h1M41 22h1M45 22h1M0 23h1M5 23h1M10 23h1M17 23h2M27 23h2M35 23h1M40 23h1M45 23h1M1 24h1M6 24h3M10 24h1M17 24h1M19 24h1M26 24h1M28 24h1M35 24h1M37 24h3M44 24h1M2 25h1M9 25h2M14 25h1M18 25h1M20 25h2M24 25h2M27 25h1M31 25h1M35 25h2M43 25h1M3 26h1M13 26h2M19 26h1M22 26h2M26 26h1M31 26h2M42 26h1M4 27h2M19 27h8M40 27h2M6 28h2M38 28h2M8 29h2M36 29h2M8 30h1M12 30h6M28 30h6M37 30h1M8 31h1M12 31h1M17 31h1M22 31h2M28 31h1M33 31h1M37 31h1M8 32h1M12 32h1M18 32h1M27 32h1M33 32h1M37 32h1M8 33h1M12 33h1M19 33h1M26 33h1M33 33h1M37 33h1M8 34h1M12 34h1M20 34h1M25 34h1M33 34h1M37 34h1M8 35h1M12 35h1M19 35h1M26 35h1M33 35h1M37 35h1M8 36h1M12 36h1M17 36h2M27 36h2M33 36h1M37 36h1M8 37h1M13 37h4M22 37h2M29 37h4M37 37h1M9 38h1M21 38h1M24 38h1M36 38h1M9 39h1M19 39h2M25 39h2M36 39h1M10 40h2M18 40h1M27 40h1M34 40h2M12 41h5M29 41h5" />
<path stroke="#030e13" d="M12 1h1M33 1h1M20 7h1M25 7h1M17 40h1M28 40h1" />
<path stroke="#59d8f9" d="M13 1h3M30 1h3M11 2h8M27 2h8M10 3h10M26 3h10M10 4h3M16 4h6M24 4h6M33 4h3M9 5h3M18 5h10M34 5h3M9 6h3M19 6h8M34 6h3M9 7h3M21 7h4M34 7h3M9 8h3M20 8h6M34 8h3M9 9h3M20 9h6M34 9h3M9 10h3M19 10h8M34 10h3M9 11h3M18 11h4M24 11h4M34 11h3M9 12h3M14 12h18M34 12h3M10 13h26M7 14h32M5 15h8M15 15h4M27 15h4M33 15h8M3 16h7M11 16h3M15 16h3M28 16h3M32 16h3M36 16h7M2 17h5M11 17h7M21 17h4M28 17h7M39 17h5M1 18h5M11 18h6M19 18h8M29 18h6M40 18h5M1 19h3M12 19h4M19 19h8M30 19h4M42 19h3M1 20h3M12 20h4M19 20h8M30 20h4M42 20h3M1 21h2M12 21h4M19 21h8M30 21h4M43 21h2M1 22h3M12 22h4M19 22h8M30 22h4M42 22h3M1 23h4M11 23h6M19 23h8M29 23h6M41 23h4M2 24h4M11 24h6M20 24h6M29 24h6M40 24h4M3 25h6M11 25h3M15 25h3M22 25h2M28 25h3M32 25h3M37 25h6M4 26h9M15 26h4M27 26h4M33 26h9M6 27h13M27 27h13M8 28h30M10 29h26M9 30h3M18 30h10M34 30h3M9 31h3M18 31h4M24 31h4M34 31h3M9 32h3M19 32h8M34 32h3M9 33h3M20 33h6M34 33h3M9 34h3M21 34h4M34 34h3M9 35h3M20 35h6M34 35h3M9 36h3M19 36h8M34 36h3M9 37h4M17 37h5M24 37h5M33 37h4M10 38h11M25 38h11M10 39h9M27 39h9M12 40h5M29 40h5" />
</svg>