<svg xmlns="http://www.w3.org/2000/svg" viewBox="0 -0.5 32 24" shape-rendering="crispEdges">
<metadata>Made with Pixels to Svg https://codepen.io/shshaw/pen/XbxvNj</metadata>
<path stroke="#d06798" d="M11 0h7M8 1h11M6 2h5M17 2h3M5 3h4M18 3h2M3 4h4M18 4h2M2 5h3M18 5h2M1 6h3M18 6h1M1 7h2M17 7h2M0 8h3M15 8h3M0 9h2M13 9h4M0 10h2M9 10h5M22 10h2M1 11h2M18 11h2M22 11h2M1 12h3M12 12h2M18 12h2M22 12h2M2 13h3M11 13h2M17 13h3M21 13h1M23 13h1M4 14h2M10 14h2M13 14h3M17 14h5M23 14h7M5 15h2M8 15h4M13 15h2M16 15h1M19 15h2M23 15h2M30 15h1M6 16h2M10 16h1M13 16h2M16 16h1M19 16h2M22 16h1M24 16h1M31 16h1M4 17h2M7 17h1M9 17h2M12 17h4M18 17h1M20 17h1M22 17h1M24 17h1M31 17h1M3 18h2M7 18h1M9 18h2M12 18h4M18 18h3M22 18h2M31 18h1M2 19h2M7 19h1M10 19h5M17 19h3M1 20h2M7 20h1M10 20h2M14 20h1M1 21h2M6 21h2M1 22h6M2 23h3" />
</svg>