<svg xmlns="http://www.w3.org/2000/svg" viewBox="0 -0.5 24 24" shape-rendering="crispEdges">
<metadata>Made with Pixels to Svg https://codepen.io/shshaw/pen/XbxvNj</metadata>
<path stroke="#635bff" d="M2 0h20M1 1h22M0 2h24M0 3h11M14 3h10M0 4h8M17 4h7M0 5h7M17 5h7M0 6h6M17 6h7M0 7h6M12 7h1M17 7h7M0 8h6M11 8h13M0 9h6M12 9h12M0 10h6M14 10h10M0 11h7M16 11h8M0 12h8M17 12h7M0 13h10M18 13h6M0 14h13M18 14h6M0 15h6M7 15h6M18 15h6M0 16h6M10 16h2M18 16h6M0 17h6M18 17h6M0 18h6M17 18h7M0 19h6M16 19h8M0 20h10M13 20h11M0 21h24M1 22h22M2 23h20" />
<path stroke="#ffffff" d="M11 3h3M8 4h9M7 5h10M6 6h11M6 7h6M13 7h4M6 8h5M6 9h6M6 10h8M7 11h9M8 12h9M10 13h8M13 14h5M6 15h1M13 15h5M6 16h4M12 16h6M6 17h12M6 18h11M6 19h10M10 20h3" />
</svg>