<svg xmlns="http://www.w3.org/2000/svg" viewBox="0 -0.5 26 23" shape-rendering="crispEdges">
<metadata>Made with Pixels to Svg https://codepen.io/shshaw/pen/XbxvNj</metadata>
<path stroke="#4dba87" d="M0 0h5M21 0h5M0 1h5M21 1h5M1 2h5M20 2h5M1 3h6M19 3h6M2 4h5M19 4h5M2 5h6M18 5h6M3 6h5M18 6h5M4 7h5M17 7h5M4 8h6M16 8h6M5 9h5M16 9h5M5 10h6M15 10h6M6 11h5M15 11h5M6 12h6M14 12h6M7 13h12M8 14h10M8 15h10M9 16h8M9 17h8M10 18h6M10 19h6M11 20h4M12 21h2M12 22h2" />
<path stroke="#435466" d="M5 0h5M16 0h5M5 1h6M15 1h6M6 2h5M15 2h5M7 3h5M14 3h5M7 4h5M14 4h5M8 5h10M8 6h10M9 7h8M10 8h6M10 9h6M11 10h4M11 11h4M12 12h2" />
</svg>