<svg xmlns="http://www.w3.org/2000/svg" viewBox="0 -0.5 52 24" shape-rendering="crispEdges">
<metadata>Made with Pixels to Svg https://codepen.io/shshaw/pen/XbxvNj</metadata>
<path stroke="#313742" d="M11 0h1M10 1h3M9 2h5M8 3h7M7 4h9M6 5h11M5 6h13M4 7h15M3 8h17M2 9h19M1 10h21M0 11h23M1 12h23M2 13h23M3 14h23M4 15h23M5 16h23M6 17h23M7 18h23M8 19h23M9 20h23M10 21h23M11 22h23M12 23h23" />
<path stroke="#72bfd0" d="M40 0h1M39 1h3M38 2h5M37 3h7M36 4h9M35 5h11M34 6h13M33 7h15M32 8h17M31 9h19M30 10h21M29 11h23M30 12h21M31 13h19M32 14h17M33 15h15M34 16h13M35 17h11M36 18h9M37 19h7M38 20h5M39 21h3M40 22h1" />
</svg>