<svg xmlns="http://www.w3.org/2000/svg" viewBox="0 -0.5 24 24" shape-rendering="crispEdges">
<metadata>Made with Pixels to Svg https://codepen.io/shshaw/pen/XbxvNj</metadata>
<path stroke="#f47b20" d="M8 1h8M6 2h12M5 3h3M16 3h3M4 4h2M18 4h2M3 5h2M9 5h3M19 5h2M2 6h2M9 6h4M20 6h2M2 7h2M11 7h2M20 7h2M1 8h2M11 8h2M21 8h2M1 9h2M11 9h3M21 9h2M1 10h2M10 10h4M21 10h2M1 11h2M10 11h4M21 11h2M1 12h2M9 12h2M13 12h2M21 12h2M1 13h2M9 13h2M13 13h2M21 13h2M1 14h2M8 14h2M13 14h3M21 14h2M1 15h2M7 15h2M14 15h2M17 15h1M21 15h2M2 16h2M7 16h2M14 16h4M20 16h2M2 17h2M15 17h1M20 17h2M3 18h2M19 18h2M4 19h2M18 19h2M5 20h3M16 20h3M6 21h12M8 22h8" />
</svg>