<svg xmlns="http://www.w3.org/2000/svg" viewBox="0 -0.5 24 24" shape-rendering="crispEdges">
<metadata>Made with Pixels to Svg https://codepen.io/shshaw/pen/XbxvNj</metadata>
<path stroke="#5d2a8e" d="M9 0h6M6 1h12M5 2h14M4 3h16M5 4h16M6 5h16M7 6h16M8 7h1M10 7h2M15 7h1M21 7h2M10 8h2M13 8h5M19 8h4M10 9h2M13 9h5M19 9h5M11 10h1M15 10h3M19 10h5M13 11h5M19 11h5M13 12h5M19 12h5M16 13h2M19 13h5M15 14h9M16 15h7M18 16h5M18 17h5M19 18h3M20 19h1" />
<path stroke="#6d4099" d="M3 4h2M2 5h4M1 6h6M1 7h4M6 7h2M1 8h4M7 8h2M0 9h5M7 9h2M0 10h5M6 10h1M8 10h1M10 10h1M0 11h5M6 11h2M10 11h2M0 12h5M6 12h2M10 12h2M0 13h2M3 13h2M6 13h3M10 13h2M0 14h15M1 15h6M10 15h6M1 16h6M8 16h3M12 16h1M1 17h6M8 17h2M11 17h1M14 17h1M2 18h6M10 18h1M12 18h1M14 18h1M16 18h3M3 19h17M4 20h16M5 21h14M6 22h12M9 23h6" />
<path stroke="#ffffff" d="M5 7h1M9 7h1M12 7h3M16 7h5M5 8h2M9 8h1M12 8h1M18 8h1M5 9h2M9 9h1M12 9h1M18 9h1M5 10h1M7 10h1M9 10h1M12 10h3M18 10h1M5 11h1M8 11h2M12 11h1M18 11h1M5 12h1M8 12h2M12 12h1M18 12h1M2 13h1M5 13h1M9 13h1M12 13h4M18 13h1M7 15h3M7 16h1M11 16h1M13 16h5M7 17h1M10 17h1M12 17h2M15 17h3M8 18h2M13 18h1M15 18h1" />
<path stroke="#f2f2f2" d="M11 18h1" />
</svg>