<svg xmlns="http://www.w3.org/2000/svg" viewBox="0 -0.5 25 28" shape-rendering="crispEdges">
<metadata>Made with Pixels to Svg https://codepen.io/shshaw/pen/XbxvNj</metadata>
<path stroke="#2549df" d="M0 0h25M0 1h25M0 2h12M23 2h2M0 3h12M23 3h2M0 4h12M22 4h3M1 5h4M22 5h2M1 6h4M22 6h2M1 7h4M22 7h2M1 8h11M22 8h2M1 9h11M22 9h2M1 10h11M22 10h2M1 11h4M22 11h2M1 12h4M22 12h2M1 13h4M22 13h2M1 14h11M22 14h2M1 15h11M22 15h2M1 16h5M9 16h3M21 16h3M2 17h4M9 17h3M21 17h2M2 18h4M9 18h3M21 18h2M2 19h4M21 19h2M2 20h4M21 20h2M2 21h6M21 21h2M2 22h10M21 22h2M2 23h10M21 23h2M2 24h10M17 24h6M3 25h9M14 25h8M7 26h11M11 27h3" />
<path stroke="#2555e5" d="M12 2h1M12 3h1M12 4h1M12 8h1M12 9h1M12 10h1M12 14h1M12 15h1M12 16h1M12 17h1M12 18h1M12 23h1M12 24h1M12 25h1" />
<path stroke="#2662ec" d="M13 2h10M13 3h10M13 4h9M20 5h2M20 6h2M20 7h2M13 8h4M20 8h2M13 9h4M20 9h2M13 10h4M20 10h2M20 11h2M20 12h2M20 13h2M13 14h3M19 14h3M13 15h3M19 15h3M13 16h3M19 16h2M13 17h3M19 17h2M13 18h3M19 18h2M19 19h2M19 20h2M17 21h4M13 22h8M13 23h8M13 24h4M13 25h1" />
<path stroke="#ebebeb" d="M5 5h7M5 6h7M5 7h7M5 11h7M5 12h7M5 13h7M6 16h3M6 17h3M6 18h3M6 19h6M6 20h6M8 21h4" />
<path stroke="#fbfbfb" d="M12 5h1M12 6h1M12 7h1M12 11h1M12 12h1M12 13h1M12 19h1M12 20h1M12 21h1M12 22h1" />
<path stroke="#ffffff" d="M13 5h7M13 6h7M13 7h7M17 8h3M17 9h3M17 10h3M13 11h7M13 12h7M13 13h7M16 14h3M16 15h3M16 16h3M16 17h3M16 18h3M13 19h6M13 20h6M13 21h4" />
</svg>