<svg xmlns="http://www.w3.org/2000/svg" viewBox="0 -0.5 19 24" shape-rendering="crispEdges">
<metadata>Made with Pixels to Svg https://codepen.io/shshaw/pen/XbxvNj</metadata>
<path stroke="#17a97a" d="M9 0h3M15 0h4M9 1h3M15 1h4M9 2h3M15 2h4M9 3h3M15 3h4M9 4h3M9 5h3M3 6h9M15 6h4M2 7h10M15 7h4M1 8h11M15 8h4M1 9h4M9 9h3M15 9h4M0 10h5M9 10h3M15 10h4M0 11h4M9 11h3M15 11h4M0 12h4M9 12h3M15 12h4M0 13h4M9 13h3M15 13h4M0 14h5M9 14h3M15 14h4M1 15h6M8 15h4M15 15h4M1 16h11M15 16h4M3 17h9M15 17h4M7 18h1M15 18h4M14 19h5M14 20h4M13 21h5M12 22h5M14 23h2" />
<path stroke="#17a879" d="M12 0h1M12 1h1M12 2h1M12 3h1M12 4h1M12 5h1M12 6h1M12 7h1M12 8h1M12 9h1M12 10h1M12 11h1M12 12h1M12 13h1M12 14h1M12 15h1M12 16h1M12 17h1" />
<path stroke="#16a879" d="M6 18h1" />
<path stroke="#16a979" d="M8 18h1" />
</svg>