<svg xmlns="http://www.w3.org/2000/svg" viewBox="0 -0.5 26 26" shape-rendering="crispEdges">
<metadata>Made with Pixels to Svg https://codepen.io/shshaw/pen/XbxvNj</metadata>
<path stroke="#000000" d="M8 0h10M6 1h2M18 1h2M5 2h1M20 2h1M4 3h1M21 3h1M3 4h1M22 4h1M2 5h1M23 5h1M1 6h1M24 6h1M1 7h1M24 7h1M1 8h1M24 8h1M0 9h1M25 9h1M0 10h1M25 10h1M0 11h1M25 11h1M0 12h1M25 12h1M0 13h1M25 13h1M0 14h1M25 14h1M0 15h1M25 15h1M0 16h1M25 16h1M1 17h1M24 17h1M1 18h1M24 18h1M1 19h1M24 19h1M2 20h1M23 20h1M3 21h1M22 21h1M4 22h1M21 22h1M5 23h1M20 23h1M6 24h2M18 24h2M8 25h10" />
<path stroke="#002467" d="M8 1h2M16 1h2M6 2h4M16 2h4M5 3h5M16 3h5M4 4h6M16 4h6M6 5h4M16 5h4M7 6h3M16 6h3M9 7h1M16 7h1M9 18h1M16 18h1M7 19h3M16 19h3M6 20h4M16 20h4M4 21h6M16 21h6M5 22h5M16 22h5M6 23h4M16 23h4M8 24h2M16 24h2" />
<path stroke="#ffffff" d="M10 1h1M15 1h1M10 2h1M15 2h1M10 3h1M15 3h1M10 4h1M15 4h1M3 5h3M10 5h1M15 5h1M20 5h3M3 6h4M10 6h1M15 6h1M19 6h4M5 7h4M10 7h1M15 7h1M17 7h4M2 8h2M6 8h5M15 8h5M22 8h2M1 9h10M15 9h10M1 10h10M15 10h10M1 15h10M15 15h10M1 16h10M15 16h10M2 17h2M6 17h5M15 17h5M22 17h2M5 18h4M10 18h1M15 18h1M17 18h4M3 19h4M10 19h1M15 19h1M19 19h4M3 20h3M10 20h1M15 20h1M20 20h3M10 21h1M15 21h1M10 22h1M15 22h1M10 23h1M15 23h1M10 24h1M15 24h1" />
<path stroke="#ca1833" d="M11 1h4M11 2h4M11 3h4M11 4h4M11 5h4M2 6h1M11 6h4M23 6h1M2 7h3M11 7h4M21 7h3M4 8h2M11 8h4M20 8h2M11 9h4M11 10h4M1 11h24M1 12h24M1 13h24M1 14h24M11 15h4M11 16h4M4 17h2M11 17h4M20 17h2M2 18h3M11 18h4M21 18h3M2 19h1M11 19h4M23 19h1M11 20h4M11 21h4M11 22h4M11 23h4M11 24h4" />
</svg>