<svg xmlns="http://www.w3.org/2000/svg" viewBox="0 -0.5 27 24" shape-rendering="crispEdges">
<metadata>Made with Pixels to Svg https://codepen.io/shshaw/pen/XbxvNj</metadata>
<path stroke="#4585f3" d="M6 0h15M6 1h15M5 2h17M5 3h17M4 4h19M3 5h21M3 6h21M2 7h23M2 8h7M18 8h7M1 9h8M18 9h8M0 10h9M19 10h8M0 11h9M20 11h7M0 12h9M21 12h6M0 13h9M22 13h5M1 14h8M23 14h3M2 15h8M24 15h1M2 16h9M3 17h9M3 18h10M4 19h10M5 20h10M5 21h11M6 22h11M6 23h12" />
<path stroke="#ffffff" d="M9 8h9M9 9h7M17 9h1M9 10h9M9 12h9M9 13h7M17 13h1M9 14h9" />
<path stroke="#407ce2" d="M16 9h1M18 10h1M9 11h11M18 12h3M16 13h1M18 13h4M18 14h5M10 15h14M11 16h14M12 17h12M13 18h11M14 19h9M15 20h7M16 21h6M17 22h4M18 23h3" />
</svg>