<svg xmlns="http://www.w3.org/2000/svg" viewBox="0 -0.5 25 25" shape-rendering="crispEdges">
<metadata>Made with Pixels to Svg https://codepen.io/shshaw/pen/XbxvNj</metadata>
<path stroke="#e44d26" d="M2 0h21M2 1h21M2 2h21M2 3h21M2 4h21M2 5h4M19 5h4M2 6h4M19 6h4M2 7h4M19 7h4M2 8h4M9 8h14M3 9h3M9 9h13M3 10h3M19 10h3M3 11h3M19 11h3M3 12h3M19 12h3M3 13h13M18 13h4M3 14h4M9 14h7M18 14h4M3 15h4M9 15h7M18 15h4M3 16h4M9 16h6M18 16h4M3 17h4M18 17h4M3 18h4M18 18h4M3 19h7M15 19h7M4 20h17M4 21h17M5 22h16M8 23h9M12 24h1" />
</svg>