<svg xmlns="http://www.w3.org/2000/svg" viewBox="0 -0.5 25 28" shape-rendering="crispEdges">
<metadata>Made with Pixels to Svg https://codepen.io/shshaw/pen/XbxvNj</metadata>
<path stroke="#d4b743" d="M0 0h25M0 1h25M0 2h12M23 2h2M0 3h12M23 3h2M0 4h12M23 4h2M1 5h8M22 5h3M1 6h8M22 6h2M1 7h8M22 7h2M1 8h8M22 8h2M1 9h8M22 9h2M1 10h8M22 10h2M1 11h8M22 11h2M1 12h8M22 12h2M1 13h8M22 13h2M1 14h8M22 14h2M1 15h8M22 15h2M2 16h7M22 16h1M2 17h2M6 17h3M22 17h1M2 18h2M22 18h1M2 19h2M21 19h2M2 20h4M21 20h2M2 21h8M21 21h2M2 22h10M21 22h2M2 23h10M21 23h2M2 24h10M18 24h5M4 25h8M15 25h6M7 26h11M11 27h3" />
<path stroke="#e2c247" d="M12 2h1M12 3h1M12 4h1M12 5h1M12 6h1M12 7h1M12 8h1M12 9h1M12 10h1M12 11h1M12 12h1M12 13h1M12 14h1M12 15h1M12 16h1M12 17h1M12 18h1M12 19h1M12 20h1M12 21h1M12 22h1M12 23h1M12 24h1M12 25h1" />
<path stroke="#fed850" d="M13 2h10M13 3h10M13 4h10M13 5h1M21 5h1M13 6h1M21 6h1M13 7h1M21 7h1M13 8h1M16 8h6M13 9h1M16 9h6M13 10h1M16 10h6M13 11h1M16 11h6M13 12h1M16 12h2M21 12h1M13 13h1M21 13h1M13 14h1M21 14h1M13 15h1M17 15h1M21 15h1M13 16h5M21 16h1M13 17h5M21 17h1M13 18h2M20 18h2M13 19h1M20 19h1M13 20h1M19 20h2M13 21h1M15 21h6M13 22h8M13 23h8M13 24h5M13 25h2" />
<path stroke="#ebebeb" d="M9 5h3M9 6h3M9 7h3M9 8h3M9 9h3M9 10h3M9 11h3M9 12h3M9 13h3M9 14h3M9 15h3M9 16h3M4 17h2M9 17h3M4 18h8M4 19h8M6 20h6M10 21h2" />
</svg>