<svg xmlns="http://www.w3.org/2000/svg" viewBox="0 -0.5 21 24" shape-rendering="crispEdges">
<metadata>Made with Pixels to Svg https://codepen.io/shshaw/pen/XbxvNj</metadata>
<path stroke="#fe6fa6" d="M8 0h5M5 1h10M4 2h13M3 3h5M12 3h6M2 4h4M13 4h5M2 5h4M14 5h5M1 6h4M15 6h4M1 7h4M15 7h4M0 8h5M15 8h4M0 9h5M15 9h5M0 10h5M15 10h5M0 11h5M14 11h6M0 12h6M14 12h5M0 13h8M12 13h7M1 14h18M1 15h3M6 15h4M11 15h4M16 15h2M1 16h3M7 16h2M12 16h2M17 16h1" />
<path stroke="#ffffff" d="M8 3h4M6 4h7M6 5h1M8 5h1M10 5h4M5 6h4M10 6h5M5 7h2M10 7h5M5 8h2M10 8h5M5 9h10M5 10h10M5 11h9M6 12h8M8 13h4" />
<path stroke="#e54ca2" d="M18 4h1M19 6h1M19 7h1M19 8h1M20 9h1M20 10h1M20 11h1M19 12h2M19 13h2M19 14h1M18 15h2M18 16h1" />
<path stroke="#060173" d="M7 5h1M9 5h1M9 6h1M7 7h3M7 8h3" />
<path stroke="#3a3e72" d="M4 15h2M10 15h1M15 15h1M9 16h1M14 16h1M3 17h1" />
<path stroke="#4f55a2" d="M4 16h2M10 16h2M15 16h2M4 17h2M9 17h3M14 17h3M3 18h3M9 18h3M14 18h3M3 19h3M9 19h3M14 19h3M4 20h2M9 20h3M14 20h3M9 21h3M15 21h1M9 22h3M9 23h2" />
</svg>