<svg xmlns="http://www.w3.org/2000/svg" viewBox="0 -0.5 35 24" shape-rendering="crispEdges">
<metadata>Made with Pixels to Svg https://codepen.io/shshaw/pen/XbxvNj</metadata>
<path stroke="#090080" d="M12 0h11M9 1h3M23 1h3M7 2h2M26 2h2M5 3h2M17 3h2M28 3h2M4 4h3M15 4h2M19 4h3M30 4h1M3 5h1M7 5h8M22 5h8M31 5h1M2 6h1M13 6h1M17 6h3M32 6h1M1 7h1M12 7h1M16 7h1M20 7h1M33 7h1M1 8h1M11 8h1M14 8h2M21 8h1M34 8h1M0 9h1M12 9h2M22 9h1M34 9h1M0 10h3M23 10h2M33 10h2M0 11h1M3 11h1M25 11h1M29 11h4M34 11h1M0 12h1M6 12h2M9 12h4M26 12h3M34 12h1M0 13h1M8 13h1M11 13h1M13 13h3M27 13h1M34 13h1M1 14h1M8 14h1M10 14h1M13 14h1M15 14h1M20 14h1M26 14h1M33 14h2M1 15h1M9 15h1M13 15h1M15 15h2M21 15h1M25 15h1M33 15h1M1 16h2M15 16h1M17 16h1M19 16h1M22 16h3M32 16h2M2 17h2M17 17h1M20 17h1M22 17h1M31 17h2M3 18h2M15 18h7M30 18h2M4 19h3M28 19h3M5 20h4M26 20h4M7 21h6M22 21h6M9 22h17M13 23h9" />
<path stroke="#2abdff" d="M12 1h11M9 2h17M7 3h10M19 3h9M7 4h8M22 4h8M1 11h2M33 11h1M1 12h5M29 12h5M1 13h7M28 13h6M2 14h6M27 14h6M2 15h7M26 15h7M3 16h8M25 16h7M4 17h9M23 17h8M5 18h10M22 18h8M7 19h21M9 20h17M13 21h9" />
<path stroke="#ffffff" d="M17 4h2M4 5h3M15 5h7M30 5h1M3 6h10M14 6h3M20 6h12M2 7h10M13 7h3M17 7h3M21 7h12M2 8h9M12 8h2M16 8h5M22 8h12M1 9h11M14 9h8M23 9h11M3 10h20M25 10h8M6 11h19M26 11h3M8 12h1M13 12h9M23 12h3M9 13h2M12 13h1M16 13h7M24 13h3M9 14h1M11 14h2M14 14h1M16 14h4M21 14h3M25 14h1M11 15h2M14 15h1M17 15h4M22 15h3M13 16h2M16 16h1M18 16h1M20 16h2M15 17h2M18 17h2M21 17h1" />
<path stroke="#010b80" d="M4 11h1" />
<path stroke="#090281" d="M5 11h1" />
<path stroke="#08027e" d="M22 12h1" />
<path stroke="#080278" d="M23 13h1" />
<path stroke="#0d0280" d="M24 14h1" />
<path stroke="#07017b" d="M10 15h1" />
<path stroke="#05017d" d="M11 16h1" />
<path stroke="#0c0082" d="M12 16h1" />
<path stroke="#09007e" d="M13 17h1" />
<path stroke="#0b0179" d="M14 17h1" />
</svg>