<svg xmlns="http://www.w3.org/2000/svg" viewBox="0 -0.5 28 24" shape-rendering="crispEdges">
<metadata>Made with Pixels to Svg https://codepen.io/shshaw/pen/XbxvNj</metadata>
<path stroke="#2ac4ce" d="M8 0h19M7 1h21M7 2h13M24 2h4M7 3h12M25 3h3M7 4h11M26 4h2M14 5h4M26 5h2M15 6h3M26 6h2M15 7h3M26 7h2M15 8h4M25 8h3M15 9h5M24 9h4M15 10h13M15 11h13" />
<path stroke="#0099a0" d="M20 2h1" />
<path stroke="#00999f" d="M21 2h3M19 3h6M18 4h3M23 4h3M18 5h2M24 5h2M18 6h2M24 6h2M18 7h3M23 7h3M19 8h6M20 9h4M19 15h6M19 16h6M19 17h6M19 18h6M19 19h6M19 20h6" />
<path stroke="#006c6f" d="M21 4h2M20 5h4M20 6h4M21 7h2M15 12h13M15 13h13M15 14h13M15 15h4M25 15h3M15 16h4M25 16h3M15 17h4M25 17h3M15 18h4M25 18h3M15 19h4M25 19h3M7 20h12M25 20h3M7 21h21M7 22h21M8 23h19" />
<path stroke="#008285" d="M1 5h13M0 6h14M0 7h14M0 8h5M10 8h4M0 9h5M6 9h8M0 10h5M6 10h8M0 11h5M10 11h4M0 12h5M6 12h8M0 13h5M6 13h8M0 14h5M6 14h8M0 15h5M6 15h8M0 16h14M0 17h14M1 18h13" />
<path stroke="#1a6367" d="M14 6h1M14 7h1M14 8h1M14 9h1M14 10h1M14 11h1" />
<path stroke="#ffffff" d="M5 8h5M5 9h1M5 10h1M5 11h5M5 12h1M5 13h1M5 14h1M5 15h1" />
<path stroke="#00393a" d="M14 12h1M14 13h1M14 14h1M14 15h1M14 16h1M14 17h1M14 18h1M7 19h8" />
</svg>