<svg xmlns="http://www.w3.org/2000/svg" viewBox="0 -0.5 11 24" shape-rendering="crispEdges">
<metadata>Made with Pixels to Svg https://codepen.io/shshaw/pen/XbxvNj</metadata>
<path stroke="#559540" d="M5 0h1M5 1h1M5 2h2M5 3h3M5 4h4M5 5h4M5 6h5M5 7h5M6 8h4M6 9h5M6 10h5M6 11h5M6 12h5M6 13h5M6 14h4M6 15h4M6 16h4M6 17h3M6 18h3M6 19h2M6 20h1" />
<path stroke="#68ab51" d="M4 2h1M3 3h2M2 4h3M2 5h3M1 6h4M1 7h4M1 8h5M0 9h6M0 10h6M0 11h6M0 12h6M1 13h5M1 14h5M1 15h5M1 16h5M2 17h4M3 18h2M3 19h2" />
<path stroke="#bec3b9" d="M5 18h1M5 19h1M5 20h1M5 21h1M5 22h1M5 23h1" />
</svg>