<svg xmlns="http://www.w3.org/2000/svg" viewBox="0 -0.5 24 26" shape-rendering="crispEdges">
<metadata>Made with Pixels to Svg https://codepen.io/shshaw/pen/XbxvNj</metadata>
<path stroke="#cdd6db" d="M9 0h1M0 20h1M10 20h1M2 23h1" />
<path stroke="#cbd6db" d="M5 1h1" />
<path stroke="#ccd7da" d="M6 1h1M9 3h1M13 18h2M5 22h1M3 23h1M11 23h1M5 24h2M10 25h1" />
<path stroke="#cfd7db" d="M7 1h2M4 18h1M5 20h1M13 20h1M12 21h1M1 22h1" />
<path stroke="#cbbdbf" d="M4 2h1" />
<path stroke="#ccd6d9" d="M5 2h1" />
<path stroke="#cbd6da" d="M6 2h1M5 19h1" />
<path stroke="#ccd6db" d="M7 2h1M12 16h1M12 18h1M12 22h1" />
<path stroke="#ccd7db" d="M8 2h2M11 17h1" />
<path stroke="#ced7dc" d="M10 2h1" />
<path stroke="#ba3b3d" d="M4 3h1" />
<path stroke="#cdd7da" d="M6 3h1M14 14h1M4 19h1M12 19h1M6 20h1M13 23h1M3 24h1" />
<path stroke="#ced6dc" d="M10 3h1" />
<path stroke="#b72224" d="M5 4h1M6 6h1M19 7h1M7 9h1M13 9h1M7 10h1M8 12h1M10 12h1M7 13h1" />
<path stroke="#ba2b2d" d="M6 4h1" />
<path stroke="#c26768" d="M7 4h1" />
<path stroke="#c27477" d="M8 4h1" />
<path stroke="#c28081" d="M10 4h1" />
<path stroke="#b61a1a" d="M6 5h1M15 6h2M16 8h1M20 8h1M17 9h1M20 10h2M9 14h1" />
<path stroke="#b82224" d="M9 5h1M13 5h1M7 7h1M9 8h2M15 8h1M18 11h1" />
<path stroke="#b82225" d="M10 5h1M9 7h3M14 7h1M19 9h1M14 10h1M23 10h1M12 11h1M7 12h1" />
<path stroke="#ba3032" d="M11 5h1" />
<path stroke="#b82324" d="M12 5h1M6 14h1" />
<path stroke="#b82124" d="M14 5h1M12 9h1M22 9h1M10 10h1M9 11h1" />
<path stroke="#b82325" d="M7 6h1M17 6h1M14 8h1M18 8h1M17 10h1" />
<path stroke="#b92325" d="M10 6h1M15 11h1" />
<path stroke="#b72225" d="M13 6h1M8 7h1" />
<path stroke="#b72223" d="M14 6h1M7 11h1M6 13h1" />
<path stroke="#b82123" d="M17 7h1M10 9h1" />
<path stroke="#b62224" d="M18 7h1" />
<path stroke="#b72123" d="M7 8h1M8 10h1" />
<path stroke="#b92224" d="M11 8h1" />
<path stroke="#b72323" d="M13 8h1" />
<path stroke="#b82223" d="M21 8h1M22 10h1M17 11h1" />
<path stroke="#ba2125" d="M8 9h1" />
<path stroke="#b72125" d="M9 9h1" />
<path stroke="#b82323" d="M11 10h1" />
<path stroke="#b72124" d="M12 10h1M8 11h1M16 11h1M19 11h1M5 14h1M4 15h2" />
<path stroke="#b92225" d="M11 12h1" />
<path stroke="#b82829" d="M13 12h1" />
<path stroke="#bd4040" d="M14 12h1" />
<path stroke="#ba3639" d="M10 13h1" />
<path stroke="#bc4b4d" d="M11 13h1" />
<path stroke="#c06a6e" d="M12 13h1" />
<path stroke="#cdd6dc" d="M14 13h1M13 19h1" />
<path stroke="#b9282b" d="M7 14h1" />
<path stroke="#bc3d3e" d="M8 14h1" />
<path stroke="#c9b5b8" d="M10 14h1" />
<path stroke="#ccd6da" d="M13 14h1M14 15h1M14 16h1M11 20h1" />
<path stroke="#bb4344" d="M6 15h1" />
<path stroke="#c9b3b5" d="M7 15h1" />
<path stroke="#ced7db" d="M8 15h1M9 19h1M3 21h1M6 22h1" />
<path stroke="#cbd7db" d="M10 15h1" />
<path stroke="#cdd8dc" d="M13 15h1M4 17h1M8 25h1" />
<path stroke="#b82527" d="M3 16h1" />
<path stroke="#bd5051" d="M4 16h1" />
<path stroke="#ced6da" d="M9 16h1M0 19h1M9 21h1" />
<path stroke="#ccd9dc" d="M10 16h1" />
<path stroke="#cdd6da" d="M11 16h1M6 17h1M10 17h1M14 17h1M1 20h1M11 22h1M10 23h1M12 24h1" />
<path stroke="#c26f72" d="M2 17h1" />
<path stroke="#ced8db" d="M9 17h1" />
<path stroke="#cbd3d7" d="M1 18h1" />
<path stroke="#ccd6dc" d="M5 18h1" />
<path stroke="#cdd5db" d="M7 18h1M7 22h1" />
<path stroke="#cdd8db" d="M8 18h1" />
<path stroke="#ccd8da" d="M9 18h1M13 22h1M9 24h1" />
<path stroke="#cdd6d9" d="M14 19h1M10 22h1" />
<path stroke="#cbd8db" d="M4 20h1" />
<path stroke="#cbd7da" d="M0 21h1" />
<path stroke="#ced7da" d="M7 21h2" />
<path stroke="#ccd5d9" d="M2 22h1" />
<path stroke="#cfd7da" d="M6 23h1" />
<path stroke="#ccd8db" d="M12 23h1" />
<path stroke="#cdd7db" d="M4 24h1M7 24h2" />
<path stroke="#ced8dc" d="M9 25h1" />
<path stroke="#cdd7dc" d="M11 25h1" />
</svg>