<svg xmlns="http://www.w3.org/2000/svg" viewBox="0 -0.5 24 24" shape-rendering="crispEdges">
<metadata>Made with Pixels to Svg https://codepen.io/shshaw/pen/XbxvNj</metadata>
<path stroke="#00546b" d="M1 0h2M0 1h1M3 1h1M0 2h1M4 2h4M1 3h1M8 3h2M2 4h1M5 4h1M10 4h1M2 5h1M11 5h1M2 6h1M12 6h1M3 7h1M13 7h1M3 8h1M13 8h1M4 9h1M14 9h1M4 10h1M14 10h1M3 11h1M15 11h1M3 12h1M15 12h1M3 13h1M6 13h1M16 13h1M3 14h1M6 14h1M16 14h1M4 15h1M6 15h2M17 15h2M4 16h3M8 16h1M19 16h2M21 17h1M20 18h3M18 19h2M19 20h2M20 21h2M22 22h1" />
</svg>