<svg xmlns="http://www.w3.org/2000/svg" viewBox="0 -0.5 24 24" shape-rendering="crispEdges">
<metadata>Made with Pixels to Svg https://codepen.io/shshaw/pen/XbxvNj</metadata>
<path stroke="#000000" d="M3 0h17M2 1h1M20 1h1M1 2h1M21 2h1M0 3h1M22 3h1M0 4h1M22 4h1M0 5h1M22 5h1M0 6h1M22 6h1M0 7h1M22 7h1M0 8h1M22 8h1M0 9h1M21 9h1M0 10h1M21 10h1M1 11h1M20 11h1M1 12h1M20 12h1M1 13h1M19 13h1M21 13h2M2 14h1M8 14h1M22 14h1M2 15h1M7 15h2M22 15h1M3 16h1M6 16h1M10 16h1M18 16h4M4 17h7M17 19h1M17 20h1M17 21h1M11 22h1M16 22h1M12 23h4" />
<path stroke="#ffffff" d="M3 1h17M2 2h1M8 2h1M15 2h1M20 2h1M1 3h1M8 3h1M16 3h1M21 3h1M1 4h1M7 4h1M17 4h1M21 4h1M1 5h1M7 5h1M18 5h1M21 5h1M1 6h1M7 6h3M16 6h3M21 6h1M1 7h1M7 7h1M9 7h2M15 7h1M17 7h2M21 7h1M1 8h1M7 8h1M10 8h1M15 8h1M18 8h1M21 8h1M1 9h1M7 9h1M11 9h1M15 9h1M18 9h1M20 9h1M1 10h1M7 10h1M11 10h1M16 10h1M18 10h1M20 10h1M2 11h1M7 11h1M10 11h1M16 11h1M18 11h2M2 12h1M7 12h1M10 12h1M17 12h3M2 13h1M7 13h2M10 13h1M18 13h1M20 13h1M3 14h1M7 14h1M9 14h2M17 14h5M3 15h1M6 15h1M9 15h1M11 15h1M17 15h1M21 15h1M4 16h2M7 16h1M11 16h1M17 16h1M11 17h1M17 17h1M11 18h1M17 18h1M11 19h1M11 20h1M16 20h1M11 21h1M16 21h1M12 22h4" />
<path stroke="#336791" d="M3 2h5M9 2h6M16 2h4M2 3h6M9 3h7M17 3h4M2 4h5M8 4h9M18 4h3M2 5h5M8 5h10M19 5h2M2 6h5M10 6h6M19 6h2M2 7h5M8 7h1M11 7h4M16 7h1M19 7h2M2 8h5M8 8h2M11 8h4M16 8h2M19 8h2M2 9h5M8 9h3M12 9h3M16 9h2M19 9h1M2 10h5M8 10h3M12 10h4M17 10h1M19 10h1M3 11h4M8 11h2M11 11h5M17 11h1M3 12h4M8 12h2M11 12h6M3 13h4M9 13h1M11 13h6M4 14h3M11 14h6M4 15h2M10 15h1M12 15h5M18 15h3M8 16h2M12 16h5M12 17h5M12 18h5M12 19h5M12 20h4M12 21h4" />
<path stroke="#326791" d="M17 13h1" />
</svg>