<svg xmlns="http://www.w3.org/2000/svg" viewBox="0 -0.5 21 19" shape-rendering="crispEdges">
<metadata>Made with Pixels to Svg https://codepen.io/shshaw/pen/XbxvNj</metadata>
<path stroke="#59d8f9" d="M5 0h3M13 0h3M4 1h2M7 1h3M11 1h3M15 1h2M4 2h1M9 2h3M16 2h1M4 3h1M9 3h3M16 3h1M4 4h1M8 4h2M11 4h2M16 4h1M4 5h13M2 6h4M7 6h1M13 6h1M15 6h4M1 7h2M5 7h3M10 7h1M13 7h3M18 7h2M0 8h2M5 8h2M9 8h3M14 8h2M19 8h2M0 9h1M6 9h1M8 9h5M14 9h1M20 9h1M0 10h2M5 10h2M9 10h3M14 10h2M19 10h2M1 11h2M5 11h3M10 11h1M13 11h3M18 11h2M2 12h4M7 12h1M13 12h1M15 12h4M4 13h13M4 14h1M9 14h1M11 14h1M16 14h1M4 15h1M9 15h3M16 15h1M4 16h1M9 16h3M16 16h1M4 17h2M7 17h3M11 17h3M15 17h2M5 18h3M13 18h3" />
<path stroke="rgba(106,233,255,0.047058823529411764)" d="M12 16h1" />
</svg>