<svg xmlns="http://www.w3.org/2000/svg" viewBox="0 -0.5 24 24" shape-rendering="crispEdges">
<metadata>Made with Pixels to Svg https://codepen.io/shshaw/pen/XbxvNj</metadata>
<path stroke="#cc6699" d="M9 0h6M6 1h12M5 2h14M4 3h8M18 3h2M3 4h7M14 4h3M19 4h2M2 5h6M11 5h7M20 5h2M1 6h6M9 6h9M20 6h3M1 7h5M8 7h10M19 7h4M1 8h4M7 8h10M19 8h4M0 9h5M6 9h10M18 9h6M0 10h4M6 10h4M16 10h8M0 11h5M6 11h18M0 12h5M7 12h17M0 13h7M8 13h16M0 14h8M10 14h14M1 15h8M14 15h9M1 16h6M9 16h1M11 16h3M15 16h8M1 17h5M7 17h3M11 17h4M16 17h7M2 18h3M7 18h2M10 18h4M15 18h7M3 19h2M7 19h1M10 19h11M4 20h2M9 20h11M5 21h14M6 22h12M9 23h6" />
<path stroke="#ffffff" d="M12 3h6M10 4h4M17 4h2M8 5h3M18 5h2M7 6h2M18 6h2M6 7h2M18 7h1M5 8h2M17 8h2M5 9h1M16 9h2M4 10h2M10 10h6M5 11h1M5 12h2M7 13h1M8 14h2M9 15h5M7 16h2M10 16h1M14 16h1M6 17h1M10 17h1M15 17h1M5 18h2M9 18h1M14 18h1M5 19h2M8 19h2M6 20h3" />
</svg>