<svg xmlns="http://www.w3.org/2000/svg" viewBox="0 -0.5 23 24" shape-rendering="crispEdges">
<metadata>Made with Pixels to Svg https://codepen.io/shshaw/pen/XbxvNj</metadata>
<path stroke="#bd272b" d="M0 0h23M0 1h1M21 1h2M0 2h1M21 2h2M0 3h1M3 3h16M21 3h2M0 4h1M3 4h16M21 4h2M0 5h1M3 5h10M15 5h4M21 5h2M0 6h1M3 6h10M15 6h4M21 6h2M0 7h1M3 7h10M15 7h4M21 7h2M0 8h1M3 8h10M15 8h4M21 8h2M0 9h1M3 9h10M15 9h1M18 9h1M21 9h2M0 10h1M3 10h10M15 10h1M18 10h1M21 10h2M0 11h1M3 11h10M15 11h1M18 11h1M21 11h2M0 12h1M3 12h7M12 12h1M15 12h1M18 12h1M21 12h2M0 13h1M3 13h1M6 13h4M12 13h1M15 13h1M18 13h1M21 13h2M0 14h1M3 14h1M6 14h4M12 14h1M15 14h1M18 14h1M21 14h2M0 15h1M3 15h1M6 15h4M12 15h1M15 15h1M18 15h1M21 15h2M0 16h1M3 16h1M6 16h1M9 16h1M12 16h1M15 16h1M18 16h1M21 16h2M0 17h1M3 17h1M6 17h1M9 17h1M12 17h1M15 17h1M18 17h1M21 17h2M0 18h1M3 18h1M6 18h1M9 18h1M12 18h1M15 18h1M18 18h1M21 18h2M0 19h1M3 19h1M6 19h1M9 19h1M12 19h1M15 19h1M18 19h1M21 19h2M0 20h1M3 20h16M21 20h2M0 21h1M21 21h2M0 22h1M21 22h2M0 23h23" />
<path stroke="#ffffff" d="M1 1h20M1 2h20M1 3h2M19 3h2M1 4h2M19 4h2M1 5h2M13 5h2M19 5h2M1 6h2M13 6h2M19 6h2M1 7h2M13 7h2M19 7h2M1 8h2M13 8h2M19 8h2M1 9h2M13 9h2M16 9h2M19 9h2M1 10h2M13 10h2M16 10h2M19 10h2M1 11h2M13 11h2M16 11h2M19 11h2M1 12h2M10 12h2M13 12h2M16 12h2M19 12h2M1 13h2M4 13h2M10 13h2M13 13h2M16 13h2M19 13h2M1 14h2M4 14h2M10 14h2M13 14h2M16 14h2M19 14h2M1 15h2M4 15h2M10 15h2M13 15h2M16 15h2M19 15h2M1 16h2M4 16h2M7 16h2M10 16h2M13 16h2M16 16h2M19 16h2M1 17h2M4 17h2M7 17h2M10 17h2M13 17h2M16 17h2M19 17h2M1 18h2M4 18h2M7 18h2M10 18h2M13 18h2M16 18h2M19 18h2M1 19h2M4 19h2M7 19h2M10 19h2M13 19h2M16 19h2M19 19h2M1 20h2M19 20h2M1 21h20M1 22h20" />
</svg>