<svg xmlns="http://www.w3.org/2000/svg" viewBox="0 -0.5 24 24" shape-rendering="crispEdges">
<metadata>Made with Pixels to Svg https://codepen.io/shshaw/pen/XbxvNj</metadata>
<path stroke="#d22830" d="M9 0h6M6 1h12M5 2h14M4 3h6M14 3h6M3 4h4M17 4h4M2 5h4M18 5h4M1 6h4M19 6h4M1 7h3M7 7h4M13 7h4M20 7h3M1 8h3M7 8h4M13 8h4M20 8h3M0 9h4M7 9h4M13 9h4M20 9h4M0 10h3M7 10h4M13 10h4M21 10h3M0 11h3M21 11h3M0 12h3M21 12h3M0 13h3M7 13h4M13 13h4M21 13h3M0 14h4M7 14h4M13 14h4M20 14h4M1 15h3M7 15h4M13 15h4M20 15h3M1 16h3M7 16h4M13 16h4M20 16h3M1 17h4M19 17h4M2 18h4M18 18h4M3 19h4M17 19h4M4 20h6M14 20h6M5 21h14M6 22h12M9 23h6" />
</svg>