<svg xmlns="http://www.w3.org/2000/svg" viewBox="0 -0.5 24 24" shape-rendering="crispEdges">
<metadata>Made with Pixels to Svg https://codepen.io/shshaw/pen/XbxvNj</metadata>
<path stroke="#00e0cf" d="M9 0h6M7 1h10M5 2h14M4 3h16M3 4h4M17 4h4M2 5h5M17 5h5M2 6h5M17 6h5M1 7h4M19 7h4M1 8h22M0 9h7M17 9h7M0 10h7M17 10h7M0 11h7M10 11h4M17 11h7M0 12h7M9 12h2M13 12h2M17 12h7M0 13h7M9 13h1M14 13h1M17 13h7M0 14h7M9 14h2M13 14h2M17 14h7M1 15h6M10 15h4M17 15h6M1 16h6M17 16h6M2 17h6M16 17h6M2 18h6M16 18h6M3 19h5M16 19h5M4 20h4M16 20h4M5 21h14M7 22h10M9 23h6" />
<path stroke="#ffffff" d="M7 4h10M7 5h10M7 6h10M5 7h14M7 9h10M7 10h10M7 11h3M14 11h3M7 12h2M11 12h2M15 12h2M7 13h2M10 13h4M15 13h2M7 14h2M11 14h2M15 14h2M7 15h3M14 15h3M7 16h10M8 17h8M8 18h8M8 19h8M8 20h8" />
</svg>