<svg xmlns="http://www.w3.org/2000/svg" viewBox="0 -0.5 50 49" shape-rendering="crispEdges">
<metadata>Made with Pixels to Svg https://codepen.io/shshaw/pen/XbxvNj</metadata>
<path stroke="#000000" d="M32 0h6M27 1h5M37 1h1M22 2h5M37 2h1M17 3h5M36 3h1M17 4h1M36 4h1M1 5h4M17 5h1M36 5h1M45 5h4M1 6h1M5 6h6M17 6h1M35 6h1M39 6h6M48 6h1M1 7h1M11 7h7M35 7h4M48 7h1M2 8h1M16 8h2M47 8h1M2 9h1M47 9h1M3 10h1M46 10h1M4 11h1M46 11h1M4 12h1M45 12h1M5 13h1M44 13h1M5 14h1M44 14h1M6 15h1M43 15h1M6 16h1M43 16h1M7 17h1M42 17h1M8 18h1M41 18h1M8 19h1M40 19h1M9 20h1M40 20h1M9 21h1M39 21h1M10 22h1M39 22h1M11 23h1M39 23h1M11 24h1M38 24h1M12 25h1M38 25h1M12 26h1M37 26h1M13 27h1M36 27h1M13 28h1M36 28h1M14 29h1M35 29h1M14 30h1M35 30h1M15 31h1M34 31h1M16 32h1M34 32h1M16 33h1M33 33h1M17 34h1M33 34h1M17 35h1M32 35h1M18 36h1M31 36h1M18 37h1M31 37h1M19 38h1M30 38h1M20 39h1M30 39h1M20 40h1M29 40h1M21 41h1M29 41h1M21 42h1M28 42h1M22 43h1M27 43h1M23 44h1M27 44h1M23 45h1M26 45h1M24 46h1M26 46h1M25 47h1" />
<path stroke="#ffd446" d="M32 1h5M27 2h10M22 3h14M18 4h18M18 5h18M18 6h17M18 7h17M18 8h16M19 9h15M18 10h15M18 11h15M38 11h1M18 12h16M35 12h4M18 13h21M18 14h20M18 15h20M18 16h19M18 17h19M18 18h18M18 19h18M18 20h4M24 20h11M24 21h11M24 22h10M24 23h10M23 24h10M23 25h10M23 26h9M23 27h9M23 28h1M27 28h4M27 29h4M27 30h3M26 31h4M26 32h3M26 33h3M26 34h2M25 35h3M25 36h2M25 37h2M25 38h1M25 39h1" />
<path stroke="#40c5fc" d="M2 6h3M2 7h9M3 8h13M3 9h15M4 10h14M5 11h13M5 12h13M6 13h12M6 14h12M7 15h10M7 16h9M8 17h7M9 18h5M9 19h4M10 20h1M10 21h1" />
<path stroke="#8775f9" d="M45 6h3M39 7h9M34 8h13M34 9h13M34 10h12M33 11h5M39 11h7M34 12h1M39 12h6M39 13h5M38 14h6M17 15h1M38 15h5M16 16h2M37 16h6M17 17h1M37 17h3M41 17h1M14 18h4M36 18h5M13 19h5M36 19h4M12 20h5M22 20h2M35 20h1M37 20h3M12 21h6M19 21h5M35 21h3M11 22h12M34 22h3M12 23h11M34 23h2M12 24h11M33 24h2M13 25h9M33 25h1M13 26h10M32 26h1M14 27h9M14 28h9M24 28h3M15 29h7M24 29h2M15 30h10M26 30h1M16 31h10M17 32h1M19 32h6M18 33h4M23 33h1M18 34h5M18 35h4M19 36h2M19 37h1" />
<path stroke="#fdd353" d="M18 9h1" />
<path stroke="#fed251" d="M33 10h1" />
<path stroke="#8675f9" d="M15 17h2" />
<path stroke="#8874f9" d="M40 17h1M36 20h1M22 29h1M25 30h1M18 32h1M22 33h1" />
<path stroke="#43c4fc" d="M11 20h1" />
<path stroke="#8977f7" d="M17 20h1" />
<path stroke="#8776f9" d="M11 21h1" />
<path stroke="#ffd34a" d="M18 21h1" />
<path stroke="#8a72f9" d="M38 21h1" />
<path stroke="#8a77f7" d="M23 22h1" />
<path stroke="#be33f9" d="M37 22h1" />
<path stroke="#bf30f9" d="M38 22h1M36 23h2M35 24h3M34 25h4M33 26h1M35 26h2M32 27h4M31 28h5M31 29h4M30 30h5M30 31h4M25 32h1M29 32h5M24 33h2M29 33h4M23 34h2M28 34h5M22 35h3M28 35h4M21 36h4M27 36h4M20 37h5M27 37h4M20 38h5M26 38h4M21 39h4M26 39h4M21 40h8M22 41h7M22 42h6M23 43h4M24 44h3M24 45h2M25 46h1" />
<path stroke="#ffd24c" d="M23 23h1" />
<path stroke="#be31f9" d="M38 23h1" />
<path stroke="rgba(72,200,255,0.054901960784313725)" d="M10 24h1" />
<path stroke="#8975f8" d="M22 25h1" />
<path stroke="#bd33f9" d="M34 26h1" />
<path stroke="#8973f9" d="M23 29h1" />
<path stroke="#8775f8" d="M26 29h1" />
<path stroke="#8774f9" d="M17 33h1" />
<path stroke="#c032f8" d="M25 34h1" />
</svg>