<svg xmlns="http://www.w3.org/2000/svg" viewBox="0 -0.5 32 32" shape-rendering="crispEdges">
<metadata>Made with Pixels to Svg https://codepen.io/shshaw/pen/XbxvNj</metadata>
<path stroke="#000000" d="M17 0h7M11 1h6M23 1h1M11 2h1M23 2h1M11 3h1M23 3h1M0 4h5M11 4h1M22 4h1M28 4h4M0 5h1M5 5h4M11 5h1M22 5h6M31 5h1M1 6h1M9 6h3M30 6h1M1 7h1M30 7h1M2 8h1M29 8h1M2 9h1M29 9h1M3 10h1M28 10h1M4 11h1M28 11h1M4 12h1M27 12h1M5 13h1M26 13h1M6 14h1M26 14h1M6 15h1M25 15h1M7 16h1M25 16h1M7 17h1M24 17h1M8 18h1M23 18h1M9 19h1M23 19h1M9 20h1M22 20h1M9 21h1M22 21h1M10 22h1M21 22h1M11 23h1M21 23h1M11 24h1M20 24h1M12 25h1M20 25h1M12 26h1M19 26h1M13 27h1M18 27h1M13 28h1M18 28h1M14 29h1M17 29h1M15 30h1M17 30h1M15 31h2" />
<path stroke="#ffc434" d="M17 1h6M12 2h11M12 3h11M12 4h10M12 5h10M12 6h10M12 7h9M12 8h14M12 9h13M12 10h13M11 11h13M11 12h13M11 13h12M11 14h2M15 14h8M15 15h7M15 16h7M15 17h6M14 18h7M14 19h2M17 19h3M14 20h1M17 20h3M17 21h2M17 22h2M16 23h2M16 24h2M16 25h1M16 26h1" />
<path stroke="#24a1fa" d="M1 5h4M2 6h7M3 7h9M3 8h8M3 9h5M4 10h2M5 11h1" />
<path stroke="#6d5af9" d="M28 5h3M22 6h8M22 7h7M11 8h1M27 8h1M10 9h2M25 9h2M8 10h4M7 11h4M5 12h6M6 13h5M7 14h4M13 14h2M7 15h8M8 16h7M8 17h7M9 18h4M10 19h1" />
<path stroke="#24a0f8" d="M2 7h1" />
<path stroke="#ffc334" d="M21 7h1" />
<path stroke="#a715f8" d="M29 7h1M28 8h1M27 9h2M26 10h2M24 11h4M25 12h2M23 13h3M24 14h2M22 15h3M23 16h2M21 17h3M13 18h1M22 18h1M12 19h2M16 19h1M20 19h3M11 20h3M15 20h2M21 20h1M10 21h7M19 21h3M11 22h6M20 22h1M12 23h3M18 23h3M12 24h3M19 24h1M13 25h3M17 25h3M14 26h2M18 26h1M14 27h2M17 27h1M14 28h4M16 29h1" />
<path stroke="#7159f3" d="M26 8h1" />
<path stroke="#25a1fa" d="M8 9h1M6 10h1" />
<path stroke="#25a0fa" d="M9 9h1" />
<path stroke="#299ffa" d="M7 10h1M6 11h1" />
<path stroke="#a525f2" d="M25 10h1" />
<path stroke="rgba(92,92,92,0.043137254901960784)" d="M29 10h1" />
<path stroke="#a81bf4" d="M24 12h1" />
<path stroke="rgba(77,77,106,0.1411764705882353)" d="M4 13h1" />
<path stroke="rgba(88,77,100,0.16862745098039217)" d="M27 13h1" />
<path stroke="#a81ef3" d="M23 14h1" />
<path stroke="rgba(69,69,69,0.043137254901960784)" d="M5 15h1" />
<path stroke="#a81bf5" d="M22 16h1M20 20h1" />
<path stroke="rgba(102,91,107,0.19607843137254902)" d="M25 17h1" />
<path stroke="rgba(101,101,115,0.20784313725490197)" d="M7 18h1" />
<path stroke="#a81af4" d="M21 18h1" />
<path stroke="#6e59f9" d="M11 19h1" />
<path stroke="#6f58f9" d="M10 20h1" />
<path stroke="#a716f6" d="M19 22h1" />
<path stroke="rgba(54,36,72,0.054901960784313725)" d="M22 22h1" />
<path stroke="#a716f7" d="M15 23h1M17 26h1" />
<path stroke="#a818f6" d="M15 24h1M18 24h1" />
<path stroke="#a615f7" d="M13 26h1M16 30h1" />
<path stroke="#a620f0" d="M16 27h1" />
<path stroke="#a715f7" d="M15 29h1" />
</svg>