<svg xmlns="http://www.w3.org/2000/svg" viewBox="0 -0.5 24 24" shape-rendering="crispEdges">
<metadata>Made with Pixels to Svg https://codepen.io/shshaw/pen/XbxvNj</metadata>
<path stroke="#ffdb49" d="M15 0h2M10 1h7M9 2h8M10 3h7M9 4h7M9 5h7M9 6h10M9 7h9M9 8h9M9 9h8M9 10h1M11 10h6M11 11h5M11 12h5M11 13h4M13 14h2M13 15h1M12 16h2M12 17h1M12 18h1" />
<path stroke="#41c2fc" d="M0 2h2M1 3h5M1 4h8M2 5h7M2 6h7M3 7h6M3 8h6M4 9h5M5 10h3M5 11h2" />
<path stroke="#827df9" d="M22 2h2M18 3h5M17 4h6M16 5h6M19 6h3M18 7h3M18 8h1M17 9h1M8 10h1M10 10h1M7 11h4M6 12h5M6 13h5M7 14h3M7 15h1" />
<path stroke="#ffda48" d="M9 3h1" />
<path stroke="#807ef9" d="M16 4h1" />
<path stroke="#c02cf9" d="M19 8h2M18 9h2M17 10h3M16 11h3M16 12h2M15 13h3M10 14h3M15 14h2M8 15h5M14 15h3M8 16h4M14 16h2M8 17h4M13 17h3M9 18h3M13 18h2M10 19h5M10 20h4M11 21h2M11 22h2" />
</svg>